<?xml version="1.0" standalone="yes"?>
<svg xmlns="http://www.w3.org/2000/svg" width="512" height="512">
<path style="fill:#010101; stroke:none;" d="M0 0L0 512L253 512L253 511C242.235 506.361 232.17 499.409 222 493.579C217.59 491.05 211.754 488.72 209.318 483.96C204.301 474.156 207.996 454.896 208 444C208.002 439.577 207.639 434.811 210.514 431.105C216.024 424.001 228.282 419.556 236 415.15C241.517 412.001 249.47 405.215 256 405.09C262.454 404.965 270.566 412.048 276 415.15C283.718 419.556 295.976 424.001 301.486 431.105C304.361 434.811 303.998 439.577 304 444C304.004 454.896 307.699 474.156 302.682 483.96C300.246 488.721 294.41 491.05 290 493.579C279.817 499.416 269.785 506.353 259 511L259 512L512 512L512 0L259 0L259 1C269.765 5.63892 279.83 12.591 290 18.4213C294.41 20.9497 300.246 23.2795 302.682 28.0401C307.699 37.8441 304.004 57.1043 304 68C303.998 72.4232 304.361 77.1886 301.486 80.8951C295.976 87.9991 283.718 92.4439 276 96.8495C270.566 99.9515 262.454 107.035 256 106.91C249.47 106.785 241.517 99.9988 236 96.8495C228.282 92.4439 216.024 87.9991 210.514 80.8951C207.639 77.1886 208.002 72.4232 208 68C207.996 57.1043 204.301 37.8441 209.318 28.0401C211.754 23.2794 217.59 20.9497 222 18.4213C232.147 12.6041 242.268 5.62457 253 1L230 0L178 0L0 0z"/>
<path style="fill:#2cb2e3; stroke:none;" d="M218 20C224.095 41.6959 245.649 12.3824 257 13.8735C267.078 15.1973 276.19 25.8956 286 29L286 30L257 45.6667L249 42.1667L226 30L243 48L249 56L249 57L261 65C264.385 51.4627 280.747 46.6362 292 40C292 57.7412 296.634 74.5689 277 82L277 83L285 91C308.08 85.3942 304 65.9088 304 47C304 40.6518 305.9 30.5308 301.486 25.3287C293.902 16.3902 277.162 10.3877 267 4.5787C263.015 2.30099 258.811 -0.497437 254 0.405884C241.849 2.68744 228.93 14.2429 218 20z"/>
<path style="fill:#010101; stroke:none;" d="M226 29L226 30L256 45.5509L286 30C280.164 24.9294 262.895 12.3835 255 13.5231C245.203 14.9374 234.955 24.819 226 29z"/>
<path style="fill:#588de9; stroke:none;" d="M286 92C279.383 79.2543 271.707 85.887 262 91L262 63L261 63L260 65L251 56L250 91C242.167 86.8743 225.395 80.8032 221.028 72.8958C216.8 65.2407 220 48.6745 220 40L251 56L218 21C202.583 26.6588 208 50.5814 208 64C208 69.5601 206.708 77.1707 210.514 81.787C217.756 90.5716 234.198 96.2354 244 101.989C247.713 104.169 252.455 107.818 257 107.255C267.066 106.007 276.712 95.8875 286 92z"/>
<path style="fill:#2cb2e3; stroke:none;" d="M214 22L215 23L214 22z"/>
<path style="fill:#588de9; stroke:none;" d="M229 27L230 28L229 27z"/>
<path style="fill:#2cb2e3; stroke:none;" d="M208 29L209 30L208 29z"/>
<path style="fill:#588de9; stroke:none;" d="M228 31L229 32L228 31M232 33L233 34L232 33M236 35L237 36L236 35z"/>
<path style="fill:#010101; stroke:none;" d="M220 40C220 48.638 216.612 66.2904 221.028 73.787C225.143 80.773 242.508 88.2729 250 91C250 82.4893 253.41 64.6595 248.972 57.3287C244.52 49.9737 227.775 43.2542 220 40z"/>
<path style="fill:#2cb2e3; stroke:none;" d="M221 40L222 41L221 40z"/>
<path style="fill:#010101; stroke:none;" d="M291 40C283.364 44.5031 267.686 49.6338 263.028 57.3287C258.59 64.6595 262 82.4894 262 91C270.008 88.085 285.019 81.3175 290.397 74.6104C294.624 69.3385 293.538 46.049 291 40z"/>
<path style="fill:#2cb2e3; stroke:none;" d="M223 41L224 42L223 41z"/>
<path style="fill:#7375ec; stroke:none;" d="M228 44L229 45L228 44z"/>
<path style="fill:#2cb2e3; stroke:none;" d="M230 45L231 46L230 45M235 48L236 49L235 48M242 52L243 53L242 52M246 54L247 55L246 54M247 55L248 56L247 55M227 78L228 79L227 78z"/>
<path style="fill:#588de9; stroke:none;" d="M279 81L280 82L279 81z"/>
<path style="fill:#2cb2e3; stroke:none;" d="M234 82L235 83L234 82z"/>
<path style="fill:#588de9; stroke:none;" d="M180 91C181.473 93.0831 182.919 95.138 185.019 96.6713C196.052 104.731 204.242 81.6887 190.999 84.6821C189.236 85.0807 187.566 85.998 186.005 86.8758C183.865 88.0788 181.946 89.516 180 91z"/>
<path style="fill:#2cb2e3; stroke:none;" d="M317.109 84.7855C311.459 86.8515 313.421 93.1158 317.109 95.8958C328.781 104.696 343.31 111.147 356 118.421C359.931 120.674 366.119 125.679 370.852 122.968C376.972 119.461 371.893 113.439 367.985 111.015C356.24 103.729 344.014 97.1114 332 90.2809C328.045 88.0323 321.973 83.0068 317.109 84.7855z"/>
<path style="fill:#588de9; stroke:none;" d="M292 87L293 88L292 87M290 88L291 89L290 88z"/>
<path style="fill:#7375ec; stroke:none;" d="M180 90L181 91L180 90z"/>
<path style="fill:#2cb2e3; stroke:none;" d="M224 90L225 91L224 90z"/>
<path style="fill:#588de9; stroke:none;" d="M286 90L287 91L286 90M178 91L179 92L178 91z"/>
<path style="fill:#7375ec; stroke:none;" d="M188 100C185.925 97.0569 182.979 92.5768 179 92.2407C175.622 91.9554 171.749 94.9781 169 96.6034C161.66 100.943 141.849 107.872 138.762 116.104C133.833 129.246 153.417 119.895 157 117.85C161.007 115.563 165.065 113.347 169 110.939C175.174 107.161 181.463 103.092 188 100M231 94L232 95L231 94M280 94L281 95L280 94z"/>
<path style="fill:#2cb2e3; stroke:none;" d="M278 95L279 96L278 95z"/>
<path style="fill:#7375ec; stroke:none;" d="M193 96L194 97L193 96M238 98L239 99L238 98z"/>
<path style="fill:#2cb2e3; stroke:none;" d="M186 100L187 101L186 100z"/>
<path style="fill:#7375ec; stroke:none;" d="M61 111L61 112L70 118.833L82 114.5L110 130L92 141C100.173 152.594 106.769 146.977 117 141C117 155.764 114.566 167.537 128 177L128 143C128 138.545 129.077 132.352 127.258 128.185C125.554 124.282 120.433 122.431 117 120.397C108.042 115.088 90.6218 100.28 80 101.257C73.3911 101.865 66.5806 107.708 61 111z"/>
<path style="fill:#588de9; stroke:none;" d="M184 101L185 102L184 101z"/>
<path style="fill:#2cb2e3; stroke:none;" d="M428 101.703C416.929 105.148 406.064 113.997 396 119.719C392.341 121.799 386.305 123.942 384.603 128.105C380.307 138.618 384 157.635 384 169C384 173.207 382.936 179.2 385.603 182.787C390.669 189.598 403.686 194.228 411 198.421C416.652 201.661 426.182 209.862 433 208.318C444.165 205.79 456.115 195.681 466 190C469.789 187.822 475.523 185.724 477.821 181.79C480.01 178.044 479 172.167 479 168C479 156.474 481.684 141.115 478.566 130.015C477.183 125.089 472.075 122.917 468 120.579C458.813 115.308 438.882 98.3169 428 101.703M261 105L262 106L261 105z"/>
<path style="fill:#b53df5; stroke:none;" d="M92 106L93 107L92 106M67 107L68 108L67 107M65 108L66 109L65 108z"/>
<path style="fill:#588de9; stroke:none;" d="M172 108L173 109L172 108z"/>
<path style="fill:#b53df5; stroke:none;" d="M117 167C116.954 180.108 97.435 186.504 87 192C87 175.476 82.2933 158.64 100 151C93.3344 136.718 87.9469 149.309 78.7145 146.218C68.9635 142.954 60.5907 134.994 51 131L70 120L63 111C55.3875 112.713 36.7791 121.539 33.7423 129.043C30.4905 137.078 33 150.386 33 159C33 165.292 30.9216 176.214 34.179 181.79C36.326 185.465 41.4624 187.393 45 189.421C54.5407 194.891 68.9428 207.49 80 208.421C90.728 209.325 108.952 193.921 118 188.554C121.274 186.612 126.888 184.311 127.418 179.981C128.068 174.681 120.733 169.63 117 167z"/>
<path style="fill:#010101; stroke:none;" d="M51 130L51 131C58.8316 135.125 72.0511 147.113 81 146.853C89.4541 146.606 103.005 135.614 110 131C104.795 125.723 87.6265 113.773 80 114.526C70.4548 115.468 59.6932 125.941 51 130M402 130L402 131C409.338 135.492 422.305 146.599 431 146.853C439.952 147.113 453.199 135.152 461 131C455.101 125.875 438.952 114.191 431 114.488C422.151 114.819 409.563 125.54 402 130z"/>
<path style="fill:#7375ec; stroke:none;" d="M46 119L47 120L46 119M66 121L67 122L66 121z"/>
<path style="fill:#b53df5; stroke:none;" d="M118 121L119 122L118 121M96 122L97 123L96 122z"/>
<path style="fill:#7375ec; stroke:none;" d="M39 123L40 124L39 123z"/>
<path style="fill:#b53df5; stroke:none;" d="M125 125L126 126L125 125M103 126L104 127L103 126M127 127L128 128L127 127z"/>
<path style="fill:#7375ec; stroke:none;" d="M52 131L53 132L52 131z"/>
<path style="fill:#b53df5; stroke:none;" d="M107 132L108 133L107 132M95 139L96 140L95 139z"/>
<path style="fill:#010101; stroke:none;" d="M45 141C45 150.075 41.8056 166.381 45.6034 174.621C48.7208 181.385 68.0624 189.959 75 192C75 183.624 78.4412 165.529 73.9722 158.379C69.4336 151.117 52.6749 144.583 45 141M116 141C108.364 145.503 92.6861 150.634 88.0278 158.329C83.5899 165.66 87 183.489 87 192C95.008 189.085 110.019 182.317 115.397 175.61C119.624 170.339 118.538 147.049 116 141M395 141C395 149.638 391.612 167.29 396.028 174.787C400.143 181.773 417.508 189.273 425 192C425 183.362 428.388 165.71 423.972 158.213C419.719 150.993 402.6 144.181 395 141M466 141C458.452 145.979 442.838 150.683 438.028 158.379C433.559 165.529 437 183.624 437 192C444.509 189.791 461.531 181.997 465.972 175.39C469.646 169.926 468.486 146.924 466 141z"/>
<path style="fill:#7375ec; stroke:none;" d="M88 143L89 144L88 143M76 145L77 146L76 145z"/>
<path style="fill:#b53df5; stroke:none;" d="M108 145L109 146L108 145z"/>
<path style="fill:#7375ec; stroke:none;" d="M56 147L57 148L56 147M94 153L95 154L94 153M70 155L71 156L70 155M189 242L190 242L190 225L232 249.15L248.972 260.213L250.148 297.91L261 312L262 312L262 276L263.028 260.213L278 250.397L316 228L316 227L309 219L271 240.15L256 247.602L239 238.861L197 215L197 214L238 190.989L256 181.784L284 196L259 168C250.064 168.259 242.468 173.971 235 178.397C222.762 185.649 210.365 192.685 198 199.719C192.718 202.724 181.3 206.829 179.434 213.093C175.377 226.705 185.904 230.971 189 242z"/>
<path style="fill:#588de9; stroke:none;" d="M251 169L252 170L251 169M258 169C271.674 188.412 293.276 204.639 315 214L309 218L317 228L322 225C322.181 233.709 325.921 239.013 333 244C333 235.565 336.249 218.632 331.821 211.329C328.516 205.877 318.413 202.239 313 199.15C296.188 189.559 276.854 173.624 258 169z"/>
<path style="fill:#7375ec; stroke:none;" d="M261.667 170.333L262.333 170.667L261.667 170.333M264 171L265 172L264 171M116 175L117 176L116 175M271 175L272 176L271 175M109 179L110 180L109 179M55 181L56 182L55 181M127 181L128 182L127 181z"/>
<path style="fill:#010101; stroke:none;" d="M197 214L197 215L239 239.421L256 248.164L274 238.989L315 215L272 189.201L255 181.498L236 191.576L197 214z"/>
<path style="fill:#588de9; stroke:none;" d="M248 184L249 185L248 184z"/>
<path style="fill:#7375ec; stroke:none;" d="M122 185L123 186L122 185z"/>
<path style="fill:#b53df5; stroke:none;" d="M141 185L142 186L141 185z"/>
<path style="fill:#7375ec; stroke:none;" d="M138 190L149 199L145 198C147.424 200.106 150.113 201.753 152.961 203.26C154.987 204.333 157.075 205.429 159.17 206.36C164.123 208.563 171.495 205.596 167.968 199.185C163.899 191.79 143.402 180.747 138 190z"/>
<path style="fill:#588de9; stroke:none;" d="M365.999 185.693C360.134 187.093 348.26 193.501 344.604 198.329C341.385 202.581 344.748 208.275 350.001 207.548C355.971 206.721 368.62 199.432 372.254 194.621C375.793 189.936 371.352 184.416 365.999 185.693z"/>
<path style="fill:#2cb2e3; stroke:none;" d="M370 185L371 186L370 185z"/>
<path style="fill:#7375ec; stroke:none;" d="M290 186L291 187L290 186z"/>
<path style="fill:#b53df5; stroke:none;" d="M149 187L150 188L149 187M138 188L139 189L138 188z"/>
<path style="fill:#7375ec; stroke:none;" d="M360 188L361 189L360 188z"/>
<path style="fill:#2cb2e3; stroke:none;" d="M373 188L374 189L373 188z"/>
<path style="fill:#b53df5; stroke:none;" d="M139 189C137.516 195.679 143.423 197.675 149 199L139 189z"/>
<path style="fill:#7375ec; stroke:none;" d="M297 190L298 191L297 190z"/>
<path style="fill:#b53df5; stroke:none;" d="M156 191L157 192L156 191z"/>
<path style="fill:#588de9; stroke:none;" d="M279 193L280 194L279 193z"/>
<path style="fill:#7375ec; stroke:none;" d="M302 193L303 194L302 193z"/>
<path style="fill:#2cb2e3; stroke:none;" d="M373 193L374 194L373 193M304 194L305 195L304 194M370 196L371 197L370 196z"/>
<path style="fill:#7375ec; stroke:none;" d="M143 197L144 198L143 197z"/>
<path style="fill:#2cb2e3; stroke:none;" d="M368 197L369 198L368 197z"/>
<path style="fill:#b53df5; stroke:none;" d="M149 199L151 201L149 199M148 200L149 201L148 200z"/>
<path style="fill:#7375ec; stroke:none;" d="M291 200L292 201L291 200z"/>
<path style="fill:#2cb2e3; stroke:none;" d="M363 200L364 201L363 200M294 202L295 203L294 202z"/>
<path style="fill:#7375ec; stroke:none;" d="M296 203L297 204L296 203z"/>
<path style="fill:#b53df5; stroke:none;" d="M156 204L157 205L156 204z"/>
<path style="fill:#7375ec; stroke:none;" d="M356 204L357 205L356 204z"/>
<path style="fill:#b53df5; stroke:none;" d="M157 205L158 206L157 205M188 205L189 206L188 205z"/>
<path style="fill:#2cb2e3; stroke:none;" d="M323 205L324 206L323 205z"/>
<path style="fill:#b53df5; stroke:none;" d="M167 206L168 207L167 206z"/>
<path style="fill:#7375ec; stroke:none;" d="M301 206L302 207L301 206M344 206L345 207L344 206z"/>
<path style="fill:#b53df5; stroke:none;" d="M161 207L162 208L161 207z"/>
<path style="fill:#7375ec; stroke:none;" d="M82 208L83 209L82 208z"/>
<path style="fill:#b53df5; stroke:none;" d="M181 209L182 210L181 209z"/>
<path style="fill:#7375ec; stroke:none;" d="M330 209L331 210L330 209z"/>
<path style="fill:#b53df5; stroke:none;" d="M203 210L204 211L203 210z"/>
<path style="fill:#2cb2e3; stroke:none;" d="M308 210L309 211L308 210z"/>
<path style="fill:#b53df5; stroke:none;" d="M179 211L180 212L179 211z"/>
<path style="fill:#2cb2e3; stroke:none;" d="M332 211L333 212L332 211z"/>
<path style="fill:#7375ec; stroke:none;" d="M312 216L313 217L312 216z"/>
<path style="fill:#b53df5; stroke:none;" d="M206 220L207 221L206 220z"/>
<path style="fill:#588de9; stroke:none;" d="M302 222L303 223L302 222z"/>
<path style="fill:#010101; stroke:none;" d="M190 225L190 274L191.028 293.61L208 304.281L250 328L250 281L249.397 260.213L234 249.799L190 225z"/>
<path style="fill:#7375ec; stroke:none;" d="M320 225L321 226L320 225z"/>
<path style="fill:#010101; stroke:none;" d="M321 225L279 249.201L263.028 259.39L262 279L262 328C276.597 321.71 290.196 312.146 304 304.281C308.835 301.526 317.927 298.406 320.972 293.61C323.639 289.41 322 280.811 322 276C322 261.7 326.506 238.121 321 225z"/>
<path style="fill:#7375ec; stroke:none;" d="M317 226L318 227L317 226z"/>
<path style="fill:#b53df5; stroke:none;" d="M220 228L221 229L220 228M179 229L179 278L179.742 299.895L197 311.719L237 334.799L256 343.79L282 331L282 330L272 322L262 328C262 316.383 262.122 306.653 250 301L250 328C235.532 319.977 221.373 311.355 207 303.15C202.298 300.466 192.766 297.187 190.603 291.895C182.138 271.181 201.193 244.634 179 229z"/>
<path style="fill:#7375ec; stroke:none;" d="M322 231L322 276C322 280.902 323.65 289.552 320.397 293.61C309.179 307.601 284.918 309.402 273 323C275.416 325.387 278.294 329.17 282 329.292C286.071 329.425 290.585 325.627 294 323.769C303.108 318.816 311.985 313.407 321 308.281C324.456 306.316 329.874 304.348 331.972 300.787C334.229 296.957 333 290.287 333 286C333 274.237 336.466 256.037 332.397 245C330.501 239.859 324.989 235.68 322 231z"/>
<path style="fill:#b53df5; stroke:none;" d="M232 235L233 236L232 235M210 236L211 237L210 236M246 243L247 244L246 243M236 251L237 252L236 251z"/>
<path style="fill:#7375ec; stroke:none;" d="M179 300L180 301L179 300z"/>
<path style="fill:#b53df5; stroke:none;" d="M308 301L309 302L308 301M79 303.681C67.4554 306.295 55.2218 316.561 45 322.421C41.1613 324.622 35.5604 326.725 33.7423 331.093C29.4459 341.417 33 359.838 33 371C33 375.321 32.0574 381.072 34.7423 384.79C39.7693 391.752 52.6344 396.356 60 400.579C66.13 404.093 75.5325 412.167 83 410.566C94.2331 408.158 107.12 397.458 117 391.603C120.395 389.591 125.758 387.704 127.397 383.815C131.751 373.478 128 354.228 128 343C128 338.78 129.056 332.815 126.397 329.21C121.435 322.484 109.157 318.258 102 314.15C96.019 310.717 86.2732 302.033 79 303.681z"/>
<path style="fill:#588de9; stroke:none;" d="M404 319L416 324.203L432 317.384L460 332L460 334L436 347L442 356L442 357L467 343L466 379L477 386C481.933 374.357 479 357.523 479 345C479 340.589 480.135 334.17 477.821 330.21C474.583 324.667 464.428 320.966 459 317.85C451.42 313.499 440.778 304.472 432 303.498C424.669 302.685 408.59 313.642 404 319z"/>
<path style="fill:#b53df5; stroke:none;" d="M160.999 304.654C154.897 306.224 143.432 312.265 139.604 317.329C136.374 321.601 139.756 327.24 145.001 326.551C151.123 325.747 163.671 318.583 167.396 313.671C171.238 308.604 166.678 303.192 160.999 304.654z"/>
<path style="fill:#7375ec; stroke:none;" d="M346.228 304.758C342.217 306.486 342.714 311.786 345.318 314.471C349.341 318.619 365.031 329.2 370.852 325.957C374.503 323.922 374.332 319.263 371.682 316.529C367.535 312.251 352.352 302.119 346.228 304.758z"/>
<path style="fill:#b53df5; stroke:none;" d="M301 305L302 306L301 305z"/>
<path style="fill:#2cb2e3; stroke:none;" d="M425 305L426 306L425 305z"/>
<path style="fill:#7375ec; stroke:none;" d="M440 307L441 308L440 307M418 309L419 310L418 309z"/>
<path style="fill:#2cb2e3; stroke:none;" d="M447 311L448 312L447 311M411 313L412 314L411 313z"/>
<path style="fill:#010101; stroke:none;" d="M52 332L52 334C59.6489 338.071 72.1899 349.424 81 349.191C90.1479 348.95 101.741 337.856 110 334L110 332C101.601 328.381 90.1041 316.99 81 316.812C72.3596 316.642 59.5915 328.001 52 332z"/>
<path style="fill:#b53df5; stroke:none;" d="M282 316L283 317L282 316z"/>
<path style="fill:#010101; stroke:none;" d="M402 332L402 334C410.362 337.904 421.762 348.853 431 349.307C439.171 349.709 453.004 338.126 460 334L460 332C452.409 328.001 439.64 316.642 431 316.812C421.896 316.99 410.399 328.381 402 332z"/>
<path style="fill:#b53df5; stroke:none;" d="M304 317L305 318L304 317z"/>
<path style="fill:#7375ec; stroke:none;" d="M476 387L476 386C473.043 383.928 469.78 379.851 466 379.542C458.082 378.897 443.696 390.902 437 395C437 379.863 434.384 366.838 444 355L428 347.902L402 334L402 332L415 326C406.96 317.313 389.788 317.77 384.603 331.043C380.403 341.797 384 360.451 384 372C384 376.129 382.972 382.016 385.742 385.471C391.075 392.122 403.627 396.641 411 400.85C416.894 404.214 425.842 411.923 433 410.588C447.758 407.836 462.388 393.355 476 387z"/>
<path style="fill:#588de9; stroke:none;" d="M401 319L402 320L401 319z"/>
<path style="fill:#2cb2e3; stroke:none;" d="M437 319L438 320L437 319z"/>
<path style="fill:#7375ec; stroke:none;" d="M236 320L237 321L236 320M439 320L440 321L439 320M214 321L215 322L214 321z"/>
<path style="fill:#b53df5; stroke:none;" d="M274 321L275 322L274 321z"/>
<path style="fill:#2cb2e3; stroke:none;" d="M421 321L422 322L421 321z"/>
<path style="fill:#7375ec; stroke:none;" d="M466 322L467 323L466 322M271 323L272 324L271 323M444 323L445 324L444 323z"/>
<path style="fill:#b53df5; stroke:none;" d="M290 325L291 326L290 325z"/>
<path style="fill:#2cb2e3; stroke:none;" d="M473 326L474 327L473 326z"/>
<path style="fill:#7375ec; stroke:none;" d="M248 327L249 328L248 327M263 327L264 328L263 327M451 327L452 328L451 327z"/>
<path style="fill:#b53df5; stroke:none;" d="M283 329L284 330L283 329z"/>
<path style="fill:#7375ec; stroke:none;" d="M279 331L280 332L279 331z"/>
<path style="fill:#588de9; stroke:none;" d="M405 335L406 336L405 335z"/>
<path style="fill:#7375ec; stroke:none;" d="M269 337L270 338L269 337M247 340L248 341L247 340M446 341L447 342L446 341z"/>
<path style="fill:#010101; stroke:none;" d="M116 343C108.409 348.421 93.1051 352.702 88.0278 360.529C83.4243 367.626 87 386.586 87 395C95.443 390.553 109.076 385.395 115.397 378.211C119.747 373.267 118.468 348.881 116 343M395 343C395 351.431 391.428 370.351 396.028 377.471C400.899 385.013 417.137 390.858 425 395C425 386.475 428.568 367.627 423.972 360.39C419.478 353.312 402.552 346.53 395 343z"/>
<path style="fill:#7375ec; stroke:none;" d="M466 343L467 344L466 343z"/>
<path style="fill:#010101; stroke:none;" d="M45 344C45 352.376 41.5588 370.471 46.0278 377.621C50.5093 384.791 67.3296 391.695 75 395C75 385.925 78.1944 369.619 74.3966 361.379C71.2418 354.534 51.9836 346.21 45 344M437 395C444.739 391.665 461.435 384.88 465.972 377.621C470.441 370.471 467 352.376 467 344C460.016 346.21 440.758 354.534 437.603 361.379C433.806 369.619 437 385.925 437 395z"/>
<path style="fill:#7375ec; stroke:none;" d="M439 345L440 346L439 345z"/>
<path style="fill:#2cb2e3; stroke:none;" d="M461 346L462 347L461 346z"/>
<path style="fill:#7375ec; stroke:none;" d="M454 350L455 351L454 350M445 355L446 356L445 355z"/>
<path style="fill:#b53df5; stroke:none;" d="M384 384L385 385L384 384z"/>
<path style="fill:#7375ec; stroke:none;" d="M477 384L478 385L477 384z"/>
<path style="fill:#b53df5; stroke:none;" d="M141.228 388.747C135.953 391.101 138.603 397.285 142.059 399.756C154.082 408.355 168.151 414.976 181 422.281C184.908 424.503 191.074 429.513 195.772 426.806C201.123 423.722 197.683 417.967 193.956 415.465C181.934 407.393 168.566 400.782 156 393.579C152.009 391.291 146.115 386.566 141.228 388.747z"/>
<path style="fill:#7375ec; stroke:none;" d="M349 398L357 407C361.76 404.495 368.922 401.986 372.257 397.621C375.165 393.814 372.916 388.43 367.995 388.281C361.594 388.087 354.213 394.85 349 398z"/>
<path style="fill:#b53df5; stroke:none;" d="M372 389L373 390L372 389z"/>
<path style="fill:#588de9; stroke:none;" d="M463 393L464 394L463 393z"/>
<path style="fill:#b53df5; stroke:none;" d="M400 394L401 395L400 394M351 396L352 397L351 396M373 396L374 397L373 396M350 397L351 398L350 397M357 407C354.969 404.119 351.957 399.471 348 399.302C344.894 399.17 341.553 402.109 339 403.573C332.605 407.238 316.348 412.772 313.786 420.093C309.647 431.92 326.199 425.018 330 422.85L341 416.579C346.398 413.484 351.699 410.256 357 407z"/>
<path style="fill:#7375ec; stroke:none;" d="M339 403L340 404L339 403z"/>
<path style="fill:#b53df5; stroke:none;" d="M255 404.742C243.811 406.208 229.636 418.06 220 423.799C216.24 426.039 211.426 427.959 209.318 432.043C205.262 439.899 208 454.315 208 463C208 469.409 206.23 479.083 209.318 484.907C213.127 492.091 226.197 496.476 233 500.424C239.553 504.228 249.022 512.506 257 511.744C268.357 510.659 282.23 498.616 292 493C296.045 490.675 301.247 488.589 303.106 483.96C306.302 476.004 304 463.492 304 455C304 448.156 306.077 437.069 302.142 431.105C297.828 424.566 286.606 420.847 280 416.988C273.595 413.247 262.748 403.727 255 404.742M359 405L360 406L359 405z"/>
<path style="fill:#7375ec; stroke:none;" d="M354 408L355 409L354 408M352 409L353 410L352 409M325 411L326 412L325 411z"/>
<path style="fill:#010101; stroke:none;" d="M227 435C234.332 439.324 247.407 450.451 256 450.451C264.689 450.451 277.621 439.351 285 435C280.232 429.434 263.569 417.997 256 417.997C248.431 417.997 231.768 429.434 227 435z"/>
<path style="fill:#7375ec; stroke:none;" d="M280 417L281 418L280 417z"/>
<path style="fill:#010101; stroke:none;" d="M220 445C220 453.505 216.588 471.348 221.028 478.671C225.395 485.875 242.37 492.712 250 496C250 486.983 253.219 470.553 249.397 462.39C246.249 455.667 226.909 447.186 220 445M262 496C269.63 492.712 286.605 485.875 290.972 478.671C295.412 471.348 292 453.505 292 445C285.176 447.16 265.712 455.751 262.603 462.39C258.781 470.553 262 486.983 262 496z"/>
</svg>
